<?xml version="1.0" encoding="UTF-8"?>
<svg xmlns="http://www.w3.org/2000/svg" width="19" height="23" viewBox="0 0 19 23" fill="none">
  <g id="PayPal">
    <path id="Fill 7" fill-rule="evenodd" clip-rule="evenodd" d="M5.35703 21.6984L5.7249 19.2832L4.90541 19.2635H0.992188L3.71174 1.44075C3.72021 1.38678 3.7476 1.33668 3.7876 1.30104C3.8278 1.2654 3.87903 1.24585 3.93262 1.24585H10.5309C12.7216 1.24585 14.2333 1.71691 15.0225 2.64681C15.3925 3.08305 15.6282 3.53904 15.7423 4.04065C15.8619 4.5671 15.8638 5.196 15.7472 5.96318L15.7387 6.01898V6.51061L16.1087 6.7273C16.4203 6.89817 16.6679 7.09368 16.8579 7.3175C17.1743 7.6906 17.3791 8.16472 17.4656 8.72661C17.555 9.30459 17.5255 9.99255 17.3791 10.7713C17.2102 11.667 16.9373 12.4472 16.5686 13.0855C16.2297 13.6737 15.7978 14.1616 15.2849 14.5396C14.7953 14.8989 14.2136 15.1716 13.5559 15.3461C12.9185 15.5176 12.1918 15.6041 11.3947 15.6041H10.8813C10.5142 15.6041 10.1575 15.7408 9.87753 15.9858C9.59675 16.2359 9.41114 16.5776 9.35419 16.9513L9.31538 17.1688L8.66534 21.4259L8.63598 21.5821C8.6281 21.6316 8.6147 21.6562 8.595 21.6729C8.57746 21.6882 8.55224 21.6984 8.52761 21.6984H5.35703Z" fill="#28356A"></path>
    <path id="Fill 8" fill-rule="evenodd" clip-rule="evenodd" d="M16.4595 6.07568C16.44 6.20582 16.4173 6.33881 16.3921 6.47546C15.5219 11.0932 12.5449 12.6885 8.74276 12.6885H6.80684C6.34182 12.6885 5.94991 13.0373 5.8776 13.5114L4.6057 21.8502C4.5586 22.1616 4.79072 22.442 5.09456 22.442H8.52819C8.93468 22.442 9.28009 22.1367 9.34413 21.7223L9.37783 21.5421L10.0243 17.3017L10.0659 17.0691C10.1291 16.6533 10.4753 16.3478 10.8818 16.3478H11.3953C14.722 16.3478 17.3263 14.9519 18.0874 10.9121C18.4052 9.22464 18.2407 7.81553 17.3994 6.82453C17.1448 6.52577 16.8289 6.27771 16.4595 6.07568Z" fill="#298FC2"></path>
    <path id="Fill 9" fill-rule="evenodd" clip-rule="evenodd" d="M15.5487 5.70048C15.4157 5.66036 15.2785 5.62411 15.1379 5.59132C14.9964 5.55935 14.8516 5.53104 14.7024 5.50619C14.1804 5.41903 13.6084 5.37769 12.9958 5.37769H7.82411C7.69662 5.37769 7.57564 5.40742 7.46746 5.46119C7.22885 5.57971 7.05171 5.81311 7.00875 6.09884L5.90848 13.3014L5.87695 13.5114C5.94927 13.0373 6.34118 12.6884 6.8062 12.6884H8.74212C12.5442 12.6884 15.5213 11.0923 16.3914 6.4754C16.4174 6.33875 16.4393 6.20576 16.4588 6.07562C16.2387 5.95485 16.0003 5.8516 15.7436 5.76362C15.6801 5.74183 15.6147 5.72085 15.5487 5.70048Z" fill="#22284F"></path>
    <path id="Fill 11" fill-rule="evenodd" clip-rule="evenodd" d="M7.00906 6.09896C7.05201 5.81323 7.22915 5.57983 7.46777 5.46212C7.57673 5.40815 7.69693 5.37842 7.82441 5.37842H12.9961C13.6087 5.37842 14.1807 5.41996 14.7027 5.50713C14.8519 5.53177 14.9967 5.56028 15.1382 5.59226C15.2788 5.62484 15.416 5.6613 15.549 5.70121C15.615 5.72158 15.6804 5.74276 15.7445 5.76374C16.0012 5.85172 16.2398 5.95579 16.4599 6.07574C16.7188 4.36929 16.4577 3.20742 15.5652 2.15533C14.5809 0.996924 12.8048 0.501221 10.5319 0.501221H3.93345C3.46922 0.501221 3.07317 0.850086 3.00145 1.32502L0.253127 19.331C0.198941 19.6872 0.464749 20.0086 0.812328 20.0086H4.88594L7.00906 6.09896Z" fill="#28356A"></path>
  </g>
</svg>
