<?xml version="1.0" encoding="UTF-8"?>
<svg xmlns="http://www.w3.org/2000/svg" width="44" height="19" viewBox="0 0 44 19" fill="none">
  <g id="Affirm">
    <path id="Affirm_2" fill-rule="evenodd" clip-rule="evenodd" d="M18.3911 10.8998H16.5428V10.1745C16.5428 9.2312 17.0817 8.96127 17.5467 8.96127C18.0597 8.96127 18.4593 9.18894 18.4593 9.18894L19.0885 7.75089C19.0885 7.75089 18.4506 7.33398 17.2912 7.33398C15.9876 7.33398 14.5044 8.06886 14.5044 10.3753V10.8998H11.4103V10.1745C11.4103 9.2312 11.9492 8.96127 12.4131 8.96127C12.6773 8.96127 13.0327 9.02275 13.3267 9.18894L13.9559 7.75089C13.5803 7.52995 12.977 7.33398 12.1586 7.33398C10.855 7.33398 9.37183 8.06886 9.37183 10.3753V10.8998H8.18835V12.4733H9.37183V18.0324H11.4103V12.4733H14.5044V18.0324H16.5428V12.4733H18.3911V10.8998ZM3.5085 16.7526C2.97247 16.7526 2.70542 16.4894 2.70542 16.0542C2.70542 15.2493 3.60648 14.9736 5.25106 14.7997C5.25106 15.8765 4.52291 16.7526 3.5085 16.7526ZM4.21743 10.6902C3.0426 10.6902 1.69005 11.2444 0.956138 11.8295L1.62665 13.2406C2.21551 12.7017 3.16748 12.2416 4.02627 12.2416C4.84184 12.2416 5.29236 12.5144 5.29236 13.0629C5.29236 13.4337 4.99361 13.62 4.42877 13.6931C2.32118 13.9678 0.666992 14.549 0.666992 16.1743C0.666992 17.4625 1.58438 18.2425 3.01762 18.2425C4.03972 18.2425 4.95038 17.6739 5.38362 16.9236V18.0322H7.28949V13.3876C7.28949 11.4692 5.95615 10.6902 4.21743 10.6902ZM23.3569 10.8998V18.0324H25.3972V14.5962C25.3972 12.9622 26.3857 12.4829 27.0754 12.4829C27.3444 12.4829 27.7075 12.5607 27.9477 12.7403L28.3194 10.8546C28.0043 10.7201 27.6748 10.6904 27.4049 10.6904C26.3559 10.6904 25.6969 11.1553 25.2618 12.0986V10.8998H23.3569ZM35.4724 11.9432C35.8922 11.3284 36.6981 10.6905 37.7769 10.6905C39.0804 10.6905 40.1592 11.4994 40.1592 13.1026V18.0325H38.1208V13.7472C38.1208 12.8029 37.5521 12.411 37.0132 12.411C36.3388 12.411 35.6645 13.0277 35.6645 14.3611V18.0325H33.6261V13.7616C33.6261 12.7885 33.09 12.411 32.5069 12.411C31.8624 12.411 31.1726 13.0421 31.1726 14.3611V18.0325H29.1313V10.9H31.0977V11.9787C31.4426 11.29 32.189 10.6905 33.2678 10.6905C34.2562 10.6905 35.0824 11.1488 35.4724 11.9432ZM21.6446 18.0326H19.6081V10.9001H21.6446V18.0326Z" fill="#060809"></path>
    <path id="Affirm-Arc" fill-rule="evenodd" clip-rule="evenodd" d="M31.4896 0.951172C25.9833 0.951172 21.0755 4.77347 19.6826 9.68798H21.6788C22.8421 6.02803 26.7912 2.81573 31.4896 2.81573C37.2004 2.81573 42.1361 7.16348 42.1361 13.932C42.1361 15.4517 41.9391 16.8215 41.5664 18.0319H43.503L43.5222 17.9656C43.8393 16.7168 44.0006 15.3604 44.0006 13.932C44.0006 6.38346 38.5001 0.951172 31.4896 0.951172Z" fill="#0FA0EA"></path>
  </g>
</svg>
