<?xml version="1.0" encoding="UTF-8"?>
<svg xmlns="http://www.w3.org/2000/svg" width="58" height="41" viewBox="0 0 58 41" fill="none">
  <g id="Payment method icon">
    <rect x="0.5" y="1.45117" width="57" height="39" rx="5.5" fill="white"></rect>
    <rect x="0.5" y="1.45117" width="57" height="39" rx="5.5" stroke="#F2F4F7"></rect>
    <path id="Yandex" d="M39.6671 18.9164C39.5503 18.1947 38.9076 17.7136 38.0313 17.7136C37.7392 17.7136 37.5055 17.7136 37.2134 17.7136C36.6876 17.6535 36.5707 17.8339 36.5707 18.2549C36.5707 20.3598 36.5707 22.4046 36.5707 24.5096C36.5707 25.5921 35.5191 26.7348 34.2922 26.9754C30.4363 27.8775 26.5804 28.7195 22.7245 29.6216C22.3155 29.7419 21.8482 29.7419 21.3808 29.7419C21.2055 29.7419 20.9134 29.6216 20.855 29.4411C20.7966 29.3209 20.9718 29.0803 21.0887 28.96C21.2639 28.8397 21.4976 28.7195 21.7313 28.5992C22.4324 28.3586 23.1919 28.118 23.893 27.8775C26.7557 26.9152 29.6184 25.953 32.4811 24.9306C33.7664 24.5096 34.4675 23.6075 34.4675 22.4648C34.5259 18.8563 34.4675 15.1877 34.4675 11.5792C34.4675 10.9778 34.1754 10.4967 33.5327 10.2561C32.7732 9.9554 32.0722 10.196 31.4295 10.4967C27.3399 12.4813 23.3087 14.466 19.2191 16.4507C18.0507 17.0521 17.3496 17.894 17.3496 19.0969C17.3496 22.5249 17.3496 25.953 17.3496 29.381C17.3496 29.5614 17.3496 29.7419 17.408 29.8621C17.817 31.0048 18.8686 31.7265 20.2708 31.7265C23.1335 31.7265 25.9962 31.7265 28.8589 31.7265C31.7216 31.7265 34.5259 31.7265 37.3886 31.7265C38.0313 31.7265 38.5571 31.6062 39.0245 31.1852C39.6087 30.7041 39.6087 30.0426 39.6087 29.4411C39.6087 26.4823 39.6671 18.9164 39.6671 18.9164ZM27.7489 17.8339C28.041 17.0521 28.6836 16.5709 29.6184 16.4507C30.2611 16.3905 30.7869 16.7514 30.9037 17.3528C31.0206 18.2549 29.9689 19.3374 28.8589 19.3374C27.9826 19.3374 27.4568 18.6759 27.7489 17.8339Z" fill="#FD6727"></path>
  </g>
</svg>
