<?xml version="1.0" encoding="UTF-8"?>
<svg xmlns="http://www.w3.org/2000/svg" width="33" height="25" viewBox="0 0 33 25" fill="none">
  <g id="JCB">
    <path id="Vector" d="M24.6363 12.8751C25.5218 12.8943 26.4122 12.836 27.2941 12.9054C28.1872 13.072 28.4025 14.424 27.609 14.8668C27.0676 15.1586 26.4245 14.9755 25.8376 15.027H24.6363V12.8751ZM27.8061 10.4394C28.0028 11.1338 27.3334 11.7572 26.6647 11.6616H24.6363C24.6506 11.0068 24.6085 10.296 24.6569 9.67571C25.4695 9.69859 26.2896 9.62903 27.0974 9.71208C27.4445 9.79929 27.735 10.0846 27.8061 10.4394ZM32.6876 0.142138C32.7254 1.4682 32.6931 2.86436 32.7039 4.21732C32.7014 9.71799 32.7092 15.2185 32.6996 20.7195C32.664 22.781 30.837 24.5723 28.7898 24.6134C26.7405 24.6217 24.691 24.6147 22.6415 24.617V16.3011C24.8745 16.2896 27.1087 16.3245 29.3408 16.2837C30.3763 16.2187 31.5105 15.5354 31.5587 14.3959C31.6806 13.2515 30.6017 12.4599 29.5772 12.3349C29.1835 12.3247 29.195 12.2201 29.5772 12.1745C30.5543 11.9633 31.3216 10.9521 31.0341 9.93931C30.7891 8.87413 29.6118 8.46186 28.6325 8.4639C26.6358 8.45034 24.6387 8.46201 22.642 8.45807C22.6548 6.9056 22.6151 5.35146 22.6634 3.80013C22.8216 1.77583 24.6946 0.10645 26.713 0.142668C28.7048 0.142365 30.6963 0.142365 32.6876 0.14229V0.142138Z" fill="url(#paint0_linear_1523_345)"></path>
    <path id="Vector_2" d="M0.0775251 4.00968C0.128519 1.95144 1.96331 0.174836 4.00791 0.144755C6.04956 0.138466 8.09151 0.143846 10.1332 0.142027C10.1275 7.02847 10.1442 13.9157 10.1247 20.8017C10.0461 22.835 8.23131 24.5777 6.20898 24.6137C4.16347 24.6211 2.11773 24.6147 0.0721454 24.6168V16.0206C2.05909 16.49 4.14271 16.6898 6.16973 16.3784C7.38138 16.1835 8.70707 15.5885 9.1173 14.3314C9.41917 13.2562 9.24921 12.1245 9.29414 11.0209V8.45796H5.78618C5.77042 10.153 5.81846 11.8511 5.7608 13.5441C5.66623 14.5847 4.63567 15.2459 3.65421 15.2106C2.43703 15.2235 0.0250152 14.3285 0.0250152 14.3285C0.0189536 11.1526 0.0603251 7.17531 0.0775251 4.00998V4.00968Z" fill="url(#paint1_linear_1523_345)"></path>
    <path id="Vector_3" d="M11.4416 9.49187C11.257 9.53104 11.4045 8.8629 11.3573 8.60944C11.3699 7.00689 11.331 5.40259 11.3787 3.80117C11.5365 1.76831 13.4239 0.0947636 15.4505 0.142348H21.4188C21.4132 7.02879 21.4298 13.916 21.4104 20.802C21.3316 22.8353 19.5167 24.5779 17.4943 24.614C15.4487 24.6217 13.4029 24.6152 11.3572 24.6172V15.1989C12.7543 16.3452 14.6532 16.5236 16.3938 16.5267C17.706 16.5263 19.0106 16.324 20.2849 16.0214V14.2959C18.8488 15.0116 17.1606 15.4663 15.5687 15.055C14.4582 14.7786 13.6521 13.7054 13.67 12.5594C13.5414 11.3676 14.24 10.1093 15.4112 9.75502C16.8653 9.29979 18.4501 9.64796 19.8131 10.2398C20.1051 10.3927 20.4015 10.5824 20.2848 10.0942V8.73802C18.0052 8.19566 15.5791 7.99608 13.2889 8.5861C12.626 8.77311 11.9801 9.05672 11.4416 9.49202V9.49187Z" fill="url(#paint2_linear_1523_345)"></path>
  </g>
  <defs>
    <linearGradient id="paint0_linear_1523_345" x1="22.5728" y1="11.8563" x2="32.6404" y2="11.8563" gradientUnits="userSpaceOnUse">
      <stop stop-color="#58B03A"></stop>
      <stop offset="1" stop-color="#55B330"></stop>
    </linearGradient>
    <linearGradient id="paint1_linear_1523_345" x1="-0.141916" y1="12.6138" x2="9.96819" y2="12.6138" gradientUnits="userSpaceOnUse">
      <stop stop-color="#0F6EB6"></stop>
      <stop offset="1" stop-color="#006DBA"></stop>
    </linearGradient>
    <linearGradient id="paint2_linear_1523_345" x1="11.3425" y1="12.0936" x2="21.4169" y2="12.0936" gradientUnits="userSpaceOnUse">
      <stop stop-color="#DE0D3D"></stop>
      <stop offset="1" stop-color="#E30138"></stop>
    </linearGradient>
  </defs>
</svg>
